<svg xmlns="http://www.w3.org/2000/svg" viewBox="35 100 500 500">
  <!-- Zielony pierścień -->
  <ellipse fill="none" stroke="#119848" stroke-width="64" stroke-miterlimit="10" cx="282.64" cy="348.09" rx="209" ry="211"/>
  <!-- Czerwone jabłko -->
  <path fill="#E33A2D" stroke="#DE392C" stroke-miterlimit="10" d="M295.87,221.46l11.71-17.31c0.52-0.77,1.53-1.03,2.35-0.6c3.36,1.74,11.46,6.01,11.58,6.95
    c-3.87,4.81-7.74,9.61-11.62,14.42c-0.4,0.49-0.82,1.1-0.65,1.71c0.09,0.34,0.36,0.6,0.61,0.85c0.72,0.7,1.48,1.43,2.44,1.71
    c0.63,0.19,1.29,0.17,1.95,0.16c9.06-0.23,18.13-0.46,28.86-1.2c10.11-0.57,20.31-1.12,30.31,0.48c10,1.6,19.91,5.53,27.43,12.49
    c7.89,6.7,13.78,15.56,17.84,25.09c4.06,9.52,6.37,19.71,7.84,29.36c0.02,5.39,0.05,10.79,0.07,16.18
    c0.03,7.04,0.06,14.11-0.85,21.09c-1.42,10.95-5.1,21.46-8.1,32.37c-6.56,17.64-15.18,34.52-25.64,50.17
    c-6.86,10.27-14.69,20.19-24.95,27.07c-6.2,4.16-13.14,7.1-20.15,9.68c-11.78,4.32-24.67,7.7-36.75,4.33
    c-5.11-1.43-9.96-4.05-15.26-4.39c-12.27-0.79-23.42,11.7-35.23,8.98c-7.01,0.88-13.89-2.92-20.52-5.37
    c-2.47-0.91-5-1.79-7.62-1.96c-5.56-0.35-10.86,2.5-16.42,2.69c-9.84,0.34-17.94-7.45-24.56-14.62
    c-7.11-7.7-17.31-21.36-22.66-30.37c-1.32-2.23-2.69-4.64-4.57-8.57c-6.06-10.54-11.25-23.1-16.05-35.1
    c-4.75-11.87-9.4-23.92-11.18-36.58c-3.57-25.48,4.96-51.54,19.44-72.3c15.25-20.48,38.89-33.89,63.85-39.29
    c24.43-5.29,50.05-3.3,74.08,2.81C294.35,222.62,295.33,222.25,295.87,221.46z"/>
  <!-- Białe połyski na jabłku -->
  <path fill="#FFFFFF" stroke="#FFFFFF" stroke-miterlimit="10" d="M216.01,264.78c6.94-0.3,13.91,0.28,20.63,1.55c0.36,0.07,0.56,0.45,0.42,0.78
    c-6.16,15.06-9.12,31.42-8.24,47.88c0.02,0.32-0.23,0.59-0.55,0.61c-8.64,0.3-17.3,0.13-25.77-0.67c-0.29-0.03-0.52-0.27-0.53-0.56
    c-0.51-17.35,4.19-34.82,13.56-49.31C215.65,264.89,215.82,264.78,216.01,264.78z"/>
  <path fill="#FFFFFF" stroke="#FFFFFF" stroke-miterlimit="10" d="M188.58,259.74c-10.92,15.97-16.8,35.33-16.98,54.83c0,0.1,0.09,0.18,0.19,0.16
    c8.45-1.16,17.06-1.15,25.53-0.06c0.1,0.01,0.18-0.06,0.18-0.16c-0.37-18.32,4.38-36.71,13.87-52.53c0.06-0.1-0.01-0.23-0.13-0.24
    c-7.76-0.63-15.52-1.26-22.51-2.07C188.68,259.66,188.62,259.69,188.58,259.74z"/>
</svg>
