<?xml version="1.0" encoding="utf-8"?>
<!-- Generator: Adobe Adobe Illustrator 24.2.0, SVG Export Plug-In . SVG Version: 6.00 Build 0)  -->
<svg version="1.1" xmlns="http://www.w3.org/2000/svg" xmlns:xlink="http://www.w3.org/1999/xlink" x="0px" y="0px"
	 width="595.28px" height="841.89px" viewBox="0 0 595.28 841.89" style="enable-background:new 0 0 595.28 841.89;"
	 xml:space="preserve">
<style type="text/css">
	.st0{fill:none;stroke:#119848;stroke-width:64;stroke-miterlimit:10;}
	.st1{stroke:#000000;stroke-miterlimit:10;}
	.st2{fill:#E33A2D;stroke:#DE392C;stroke-miterlimit:10;}
	.st3{fill:#FFFFFF;stroke:#FFFFFF;stroke-miterlimit:10;}
	.st4{fill:#FFFFFF;}
</style>
<g id="Layer_2">
	<ellipse class="st0" cx="282.64" cy="348.09" rx="209" ry="211"/>
</g>
<g id="Layer_5">
	<path class="st1" d="M210.71,454.68c13.07,17.71,26.99,38.75,40.72,55.13c7.63,9.1,12.98,16.61,16.35,27.99
		c2.65,8.97,1.05,20.23,0.72,29.58c-0.74,21.32-3.79,42.48-6.51,63.65c-3.77,4.39-8.7,7.77-13.99,9.77
		c-64.28,2.65-129.19,17.61-183.61,51.92c-6.45,4.07-13.49,9.83-12.98,17.44c0.46,6.89,7.09,11.72,13.56,14.13
		c11.47,4.27,24.64,4.05,35.75-1.09c11.3-5.23,19.78-14.93,29.45-22.77c23.92-19.39,54.94-27.23,84.74-32.85
		c54.31-12.34,110.24-17.57,165.8-16.22c24.73,0.38,53.96,0.81,77.72,1.68c34.54,1.91,69.08,3.81,102.8,5.33
		c-45.02-5.15-90.05-10.3-134.69-15.54c-40.86-1.81-81.71-3.63-121.85-5.47c-3.59-3.13-7.18-6.27-10.31-9.63
		c-2.94-24.93-4.09-50.06-3.44-75.15c0.19-7.32-1.41-12.87,1.72-19.49c3.69-7.8,12.71-15.39,19.4-20.84
		c10.85-8.85,21.55-18.2,29.38-29.81c7.82-11.62,12.57-25.87,10.18-39.95c0.12-0.13,0.25-0.25,0.39-0.53
		c-0.03,1.04-0.07,2.08-0.1,3.13c-0.67,2.4-2.51,4.45-4.83,5.37c-0.16-2.69-0.33-5.38-0.49-8.07c-1.11,0.41-1.88,1.49-2.24,2.62
		c-0.36,1.13-0.4,2.34-0.47,3.53c-0.47,7.41-2.83,14.68-6.8,20.96c-0.09-7.59-0.18-15.19-0.2-22.74c-1.4-1.13-3.61-0.78-4.93,0.43
		s-1.88,3.08-1.98,4.87c-0.1,1.8,0.21,3.58,0.33,5.38c0.37,5.39-0.9,10.8-2.93,15.8c-2.03,5.01-4.82,9.67-7.6,14.5
		c-8.38,8.21-17.31,15.86-26.95,22.44c-0.42-23.36,3.07-46.79,10.25-69.06c-2.67,0.59-5.34,1.17-8,1.76
		c-0.57,0.13-1.17,0.27-1.6,0.66c-0.69,0.64-0.7,1.7-0.69,2.64c0.09,6.89-0.91,13.8-2.54,20.65c-3.13-5.69-5.68-11.69-7.62-17.88
		c-2.85,1.8-5.93,3.23-9.14,4.25c8.6,10.23,11.65,24.87,7.72,37.55c-10.12-10.9-18.65-23.28-25.28-36.23
		c-4.43-0.35-8.91-0.09-13.11,0.42c9.97,16.19,22.05,31.08,35.93,44.02c-1.22,4.04-2.45,8.07-3.67,12.11
		c-0.23,0.76-0.49,1.57-1.06,2.12c-0.58,0.55-1.59,0.74-2.2,0.06c-18.73-17.55-35.07-37.7-48.08-59.83c-1.6-2.71-3.2-5.53-5.67-7.48
		c-2.47-1.95-6.06-2.86-8.8-1.31S207.03,449.7,210.71,454.68z"/>
	<path class="st1" d="M243.09,691.23c7.42,0.77,14.2,1.53,21.55,0.26c13.82-2.38,25.79-11.69,39.7-13.58
		c40.08-8.14,81-12.19,121.41-11.67c49.97-0.89,99.97-0.47,149.41,2.86c-55.08-5.53-110.41-10.51-165.54-8.6
		c-28.13-1.24-56.28,1.24-84.33,3.72c-28.96,2.56-58.5,5.26-85.15,16.87c-2.81,1.22-6.01,3.2-5.95,6.26
		c0.05,2.5,2.48,2.92,4.95,3.29C241.62,691.01,244.85,691.72,243.09,691.23z"/>
</g>
<g id="Layer_3">
	<path class="st2" d="M295.87,221.46l11.71-17.31c0.52-0.77,1.53-1.03,2.35-0.6c3.36,1.74,11.46,6.01,11.58,6.95
		c-3.87,4.81-7.74,9.61-11.62,14.42c-0.4,0.49-0.82,1.1-0.65,1.71c0.09,0.34,0.36,0.6,0.61,0.85c0.72,0.7,1.48,1.43,2.44,1.71
		c0.63,0.19,1.29,0.17,1.95,0.16c9.06-0.23,18.13-0.46,28.86-1.2c10.11-0.57,20.31-1.12,30.31,0.48c10,1.6,19.91,5.53,27.43,12.49
		c7.89,6.7,13.78,15.56,17.84,25.09c4.06,9.52,6.37,19.71,7.84,29.36c0.02,5.39,0.05,10.79,0.07,16.18
		c0.03,7.04,0.06,14.11-0.85,21.09c-1.42,10.95-5.1,21.46-8.1,32.37c-6.56,17.64-15.18,34.52-25.64,50.17
		c-6.86,10.27-14.69,20.19-24.95,27.07c-6.2,4.16-13.14,7.1-20.15,9.68c-11.78,4.32-24.67,7.7-36.75,4.33
		c-5.11-1.43-9.96-4.05-15.26-4.39c-12.27-0.79-23.42,11.7-35.23,8.98c-7.01,0.88-13.89-2.92-20.52-5.37
		c-2.47-0.91-5-1.79-7.62-1.96c-5.56-0.35-10.86,2.5-16.42,2.69c-9.84,0.34-17.94-7.45-24.56-14.62
		c-7.11-7.7-17.31-21.36-22.66-30.37c-1.32-2.23-2.69-4.64-4.57-8.57c-6.06-10.54-11.25-23.1-16.05-35.1
		c-4.75-11.87-9.4-23.92-11.18-36.58c-3.57-25.48,4.96-51.54,19.44-72.3c15.25-20.48,38.89-33.89,63.85-39.29
		c24.43-5.29,50.05-3.3,74.08,2.81C294.35,222.62,295.33,222.25,295.87,221.46z"/>
	<path class="st3" d="M216.01,264.78c6.94-0.3,13.91,0.28,20.63,1.55c0.36,0.07,0.56,0.45,0.42,0.78
		c-6.16,15.06-9.12,31.42-8.24,47.88c0.02,0.32-0.23,0.59-0.55,0.61c-8.64,0.3-17.3,0.13-25.77-0.67c-0.29-0.03-0.52-0.27-0.53-0.56
		c-0.51-17.35,4.19-34.82,13.56-49.31C215.65,264.89,215.82,264.78,216.01,264.78z"/>
	<path class="st3" d="M188.58,259.74c-10.92,15.97-16.8,35.33-16.98,54.83c0,0.1,0.09,0.18,0.19,0.16
		c8.45-1.16,17.06-1.15,25.53-0.06c0.1,0.01,0.18-0.06,0.18-0.16c-0.37-18.32,4.38-36.71,13.87-52.53c0.06-0.1-0.01-0.23-0.13-0.24
		c-7.76-0.63-15.52-1.26-22.51-2.07C188.68,259.66,188.62,259.69,188.58,259.74z"/>
</g>
<g id="Layer_6">
	<g>
		<g>
			<path class="st4" d="M166.53,496.87l24.34,16.35l-0.93,1.38l-37.9,14.36l-0.26,0.38l8.64,5.8c1.62,1.09,3.05,1.83,4.29,2.22
				c1.24,0.39,2.44,0.35,3.62-0.13c1.18-0.48,2.52-1.5,4.04-3.07l1.53,1.02l-6.13,8l-23.33-15.68l0.9-1.34l37.89-14.65l0.19-0.29
				l-9.97-6.7c-1.81-1.22-3.35-1.97-4.62-2.24c-1.27-0.28-2.52-0.11-3.76,0.49c-1.24,0.6-2.69,1.61-4.38,3.01l-1.48-0.99
				L166.53,496.87z"/>
			<path class="st4" d="M137.71,469.49l21.67,21.74l-1.22,1.22c-1.11-1.11-2.02-1.87-2.72-2.28c-0.7-0.41-1.42-0.46-2.13-0.15
				c-0.72,0.31-1.61,0.99-2.67,2.05l-16.98,16.92c-1.03,1.03-1.72,1.91-2.06,2.66c-0.34,0.74-0.33,1.49,0.04,2.24
				c0.37,0.75,1.1,1.68,2.21,2.79l-1.22,1.22l-21.31-21.38l6.43-6.9l1.3,1.3c-1.17,1.54-1.9,2.86-2.2,3.94
				c-0.3,1.08-0.13,2.19,0.5,3.31c0.64,1.12,1.79,2.53,3.47,4.21l5.97,5.99l10.34-10.31l-4.75-4.76c-1.24-1.25-2.3-2.09-3.17-2.53
				c-0.87-0.44-1.72-0.48-2.56-0.13c-0.84,0.35-1.8,1.07-2.89,2.15l-1.3-1.3l9.45-9.42l1.3,1.3c-1.11,1.11-1.82,2.06-2.12,2.84
				c-0.3,0.79-0.21,1.58,0.28,2.4s1.35,1.85,2.6,3.09l4.75,4.76l11.2-11.16l-5.23-5.25c-1.57-1.58-2.91-2.77-4.02-3.58
				c-1.11-0.81-2.15-1.3-3.11-1.45c-0.96-0.15-2.01-0.03-3.13,0.36c-1.12,0.39-2.5,0.99-4.13,1.8l-1.3-1.3L137.71,469.49z"/>
			<path class="st4" d="M131.42,459.9l1,1.47l-9.96,7.43l-1-1.47c1.79-2.06,3.01-3.87,3.65-5.41c0.64-1.55,0.78-3.03,0.44-4.45
				s-1.06-2.93-2.16-4.54c-0.82-1.2-1.69-2.12-2.61-2.75c-0.92-0.63-1.91-0.92-2.98-0.89c-1.07,0.03-2.2,0.46-3.41,1.28
				c-1.39,0.95-2.28,2.13-2.67,3.53c-0.39,1.4-0.53,2.95-0.42,4.64c0.11,1.69,0.24,3.43,0.4,5.22c0.14,1.76,0.19,3.51,0.17,5.24
				c-0.02,1.73-0.35,3.36-0.98,4.88c-0.63,1.52-1.77,2.84-3.42,3.97c-1.68,1.14-3.36,1.69-5.04,1.63c-1.69-0.05-3.29-0.56-4.82-1.51
				c-1.53-0.95-2.86-2.25-3.98-3.89c-0.99-1.45-1.64-2.66-1.95-3.61c-0.3-0.95-0.48-1.75-0.54-2.38c-0.06-0.63-0.22-1.14-0.48-1.52
				c-0.26-0.38-0.57-0.62-0.94-0.71c-0.37-0.1-0.85-0.04-1.44,0.18l-0.84-1.23l9.27-6.82l0.97,1.42c-2.17,2.46-3.51,4.67-4.02,6.65
				c-0.51,1.97,0.07,4.15,1.75,6.53c1.1,1.61,2.33,2.61,3.68,2.99c1.35,0.38,2.77,0.06,4.25-0.96c1.17-0.8,1.95-1.82,2.33-3.05
				c0.39-1.24,0.54-2.62,0.47-4.15c-0.07-1.53-0.16-3.12-0.26-4.76c-0.11-1.46-0.23-2.92-0.35-4.39c-0.12-1.47-0.1-2.9,0.06-4.29
				c0.17-1.39,0.58-2.69,1.23-3.91c0.66-1.21,1.7-2.31,3.12-3.28c1.84-1.25,3.67-1.89,5.51-1.92c1.84-0.03,3.58,0.47,5.22,1.48
				c1.64,1.01,3.09,2.44,4.34,4.27c1.12,1.65,1.92,3.07,2.38,4.25c0.46,1.19,0.78,2.16,0.94,2.91s0.37,1.31,0.63,1.69
				c0.22,0.32,0.55,0.5,1.01,0.56C130.45,460.31,130.92,460.19,131.42,459.9z"/>
			<path class="st4" d="M107.14,419.53l6.54,14.83l-1.58,0.7c-0.6-1.37-1.17-2.33-1.71-2.89c-0.54-0.56-1.21-0.78-2.03-0.68
				c-0.81,0.11-1.95,0.48-3.43,1.13l-22.62,9.98c-1.54,0.68-2.4,1.45-2.57,2.29c-0.17,0.85,0.12,2.12,0.86,3.8l-1.58,0.7
				l-5.78-13.09c-0.74-1.68-1.33-3.36-1.75-5.04c-0.43-1.68-0.59-3.26-0.49-4.75c0.1-1.49,0.56-2.84,1.38-4.06
				c0.82-1.22,2.11-2.22,3.86-2.99c2.03-0.9,3.91-1.26,5.64-1.11c1.73,0.16,3.3,0.71,4.72,1.66c1.42,0.94,2.67,2.16,3.75,3.66
				c1.08,1.49,2,3.1,2.75,4.82c0.23,0.53,0.45,1.1,0.64,1.73c0.19,0.63,0.28,1.11,0.26,1.45l8.99-3.97
				c1.44-0.64,2.44-1.26,3.01-1.86c0.57-0.61,0.79-1.34,0.66-2.21c-0.13-0.86-0.5-2-1.12-3.4L107.14,419.53z M91.04,429.59
				c-0.84-1.89-1.78-3.38-2.82-4.47c-1.05-1.09-2.28-1.71-3.72-1.88c-1.43-0.16-3.17,0.2-5.2,1.1c-2.38,1.05-3.91,2.55-4.58,4.5
				c-0.67,1.95-0.38,4.34,0.88,7.18c0.23,0.53,0.48,1.04,0.74,1.53c0.26,0.49,0.55,1,0.87,1.54l14.88-6.57
				c-0.09-0.3-0.23-0.73-0.41-1.29C91.48,430.66,91.27,430.11,91.04,429.59z"/>
			<path class="st4" d="M57.08,392.87l0.48,2.6l-8.34-4.59l-1.05-5.65l1.19-0.22L57.08,392.87z M96.67,382.55
				c0.69,3.73,0.52,7.09-0.53,10.07c-1.04,2.98-2.87,5.46-5.49,7.45c-2.61,1.99-5.92,3.35-9.91,4.09c-3.84,0.71-7.34,0.61-10.49-0.3
				c-3.15-0.92-5.78-2.57-7.88-4.97c-2.1-2.4-3.5-5.46-4.19-9.19c-0.7-3.77-0.51-7.13,0.55-10.1c1.07-2.96,2.87-5.42,5.41-7.38
				c2.54-1.95,5.68-3.28,9.41-3.97c3.96-0.73,7.55-0.65,10.78,0.25c3.23,0.9,5.92,2.54,8.07,4.91
				C94.56,375.77,95.98,378.82,96.67,382.55z M94.29,382.93c-0.75-4.03-2.75-6.77-6.02-8.21c-3.27-1.44-7.75-1.63-13.44-0.58
				c-3.39,0.63-6.23,1.68-8.51,3.16c-2.28,1.48-3.92,3.25-4.92,5.33c-1,2.08-1.27,4.34-0.82,6.79c0.68,3.66,2.68,6.29,5.99,7.89
				c3.32,1.61,7.56,1.93,12.72,0.97c5.31-0.99,9.33-2.77,12.04-5.36C94.07,390.33,95.04,387,94.29,382.93z"/>
			<path class="st4" d="M93.95,327.1l-1.37,28.42l-1.72-0.08c0.07-1.53,0-2.67-0.24-3.41c-0.23-0.74-0.73-1.24-1.48-1.51
				c-0.75-0.27-1.88-0.44-3.37-0.51l-9.13-0.44l2.8,5.26l-1.94,0.94l-3.38-6.32l-11.71-0.56c-1.49-0.07-2.65-0.01-3.46,0.18
				c-0.81,0.19-1.39,0.64-1.73,1.35c-0.34,0.71-0.55,1.84-0.62,3.37l-1.72-0.08l0.78-16.13l1.72,0.08
				c-0.08,1.57,0.03,2.77,0.31,3.61c0.29,0.84,0.82,1.42,1.61,1.75c0.79,0.33,1.93,0.52,3.42,0.6l8.5,0.41l-5.01-9.39l1.83-0.95
				l5.65,10.46l13.95,0.67c1.26,0.06,2.1-0.21,2.51-0.8c0.41-0.59,0.66-1.73,0.74-3.42l0.13-2.7c0.09-1.91,0.02-3.47-0.21-4.67
				s-0.67-2.16-1.33-2.88s-1.54-1.36-2.64-1.91c-1.1-0.55-2.47-1.13-4.09-1.75l0.09-1.84L93.95,327.1z"/>
			<path class="st4" d="M100.8,298.77l-0.57,1.69l-11.94-3.45l0.57-1.69c2.73,0.19,4.9,0.07,6.52-0.36c1.62-0.43,2.89-1.2,3.81-2.33
				c0.92-1.12,1.69-2.61,2.31-4.47c0.46-1.38,0.67-2.63,0.61-3.74c-0.05-1.11-0.42-2.08-1.09-2.91c-0.67-0.83-1.7-1.48-3.08-1.94
				c-1.6-0.53-3.07-0.53-4.43,0c-1.35,0.54-2.67,1.36-3.95,2.47c-1.28,1.11-2.59,2.27-3.92,3.47c-1.32,1.17-2.68,2.28-4.08,3.3
				c-1.39,1.03-2.89,1.75-4.48,2.17c-1.59,0.42-3.34,0.31-5.23-0.33c-1.93-0.64-3.38-1.66-4.35-3.03c-0.97-1.38-1.54-2.96-1.71-4.76
				c-0.17-1.79,0.07-3.63,0.7-5.52c0.56-1.67,1.13-2.92,1.71-3.73c0.58-0.82,1.1-1.44,1.57-1.87s0.77-0.86,0.92-1.3
				c0.15-0.44,0.15-0.83,0-1.18c-0.14-0.35-0.48-0.7-1.02-1.04l0.47-1.42l11.03,3.27l-0.55,1.63c-3.27-0.25-5.85,0.02-7.73,0.81
				s-3.26,2.56-4.15,5.34c-0.62,1.85-0.67,3.43-0.16,4.74c0.51,1.3,1.62,2.24,3.33,2.81c1.35,0.45,2.63,0.45,3.84,0.02
				c1.22-0.44,2.42-1.15,3.59-2.13c1.18-0.98,2.39-2.01,3.64-3.08c1.09-0.97,2.19-1.94,3.29-2.93c1.1-0.99,2.25-1.83,3.46-2.54
				c1.21-0.71,2.49-1.17,3.86-1.38c1.36-0.21,2.86-0.04,4.5,0.51c2.11,0.71,3.73,1.78,4.86,3.23c1.13,1.45,1.79,3.14,1.97,5.06
				s-0.08,3.94-0.78,6.04c-0.63,1.89-1.28,3.38-1.95,4.47c-0.67,1.09-1.25,1.93-1.75,2.51c-0.5,0.58-0.82,1.09-0.97,1.52
				c-0.12,0.36-0.07,0.75,0.16,1.15C99.89,298.24,100.27,298.55,100.8,298.77z"/>
			<path class="st4" d="M124.02,244.2l-14.04,25.74l-1.46-0.8l-17.78-36.42l-0.4-0.22l-4.98,9.13c-0.94,1.72-1.54,3.21-1.82,4.47
				c-0.28,1.27-0.12,2.47,0.46,3.59c0.59,1.13,1.73,2.37,3.43,3.74l-0.88,1.61l-8.53-5.38L91.48,225l1.41,0.77l18.06,36.38l0.3,0.17
				l5.76-10.55c1.05-1.92,1.65-3.52,1.81-4.81c0.16-1.29-0.12-2.52-0.83-3.7c-0.71-1.17-1.85-2.54-3.4-4.08l0.85-1.57L124.02,244.2z
				"/>
			<path class="st4" d="M139.45,224.01l-10.77,12.58l-1.31-1.12c1.15-1.34,1.87-2.39,2.18-3.17c0.31-0.77,0.22-1.51-0.25-2.22
				c-0.48-0.71-1.35-1.61-2.63-2.71l-17.2-14.73c-1.13-0.97-2.09-1.67-2.87-2.08c-0.78-0.41-1.56-0.44-2.33-0.06
				c-0.77,0.37-1.76,1.26-2.95,2.65l-1.31-1.12l10.77-12.58l1.31,1.12c-1.17,1.37-1.89,2.47-2.15,3.3c-0.26,0.84-0.12,1.6,0.42,2.29
				c0.54,0.69,1.38,1.52,2.52,2.5l8.21,7.03l0.19-0.22l-0.84-12.98c-0.09-1.84-0.24-3.31-0.46-4.41c-0.22-1.1-0.65-1.92-1.29-2.47
				c-0.47-0.4-0.91-0.57-1.34-0.51c-0.43,0.06-0.91,0.4-1.43,1.01l-0.6,0.7l-1.31-1.12l9.16-10.7l1.31,1.12
				c-0.67,0.84-1.14,1.63-1.43,2.37c-0.28,0.74-0.44,1.56-0.48,2.46c-0.04,0.9-0.03,2.06,0.02,3.46l0.75,17.07l23.04-1.99
				c1.29-0.15,2.35-0.41,3.16-0.78c0.81-0.36,1.68-1.08,2.61-2.16l1.31,1.12l-10.81,12.62l-1.31-1.12l0.75-0.87
				c0.52-0.61,0.83-1.1,0.93-1.48c0.09-0.38-0.02-0.7-0.34-0.97c-0.5-0.42-1.24-0.68-2.22-0.77c-0.99-0.09-2.35-0.07-4.09,0.05
				c-1.74,0.12-3.96,0.31-6.66,0.58l-7.13,0.55l-0.34,0.39l7.86,6.73c1.22,1.05,2.22,1.75,3,2.11c0.78,0.36,1.54,0.34,2.3-0.08
				c0.76-0.41,1.68-1.26,2.78-2.54L139.45,224.01z"/>
			<path class="st4" d="M173.78,193.2c-3.09,2.2-6.21,3.45-9.35,3.76c-3.14,0.31-6.17-0.31-9.07-1.84c-2.9-1.54-5.53-3.96-7.88-7.27
				c-2.26-3.19-3.64-6.4-4.14-9.65c-0.5-3.24-0.1-6.32,1.19-9.24c1.29-2.92,3.48-5.47,6.57-7.67c3.12-2.22,6.26-3.47,9.39-3.75
				c3.14-0.28,6.13,0.32,8.97,1.81c2.84,1.48,5.36,3.77,7.56,6.87c2.33,3.28,3.77,6.57,4.31,9.88c0.54,3.31,0.19,6.44-1.05,9.39
				C179.04,188.42,176.87,191,173.78,193.2z M147.75,161.62l-2.16,1.53l0.66-9.5l4.69-3.33l0.7,0.98L147.75,161.62z M172.43,191.19
				c3.34-2.37,4.98-5.35,4.91-8.92c-0.07-3.57-1.78-7.71-5.13-12.43c-2-2.81-4.14-4.94-6.44-6.39c-2.3-1.45-4.6-2.19-6.9-2.22
				c-2.3-0.03-4.47,0.67-6.5,2.12c-3.03,2.15-4.58,5.07-4.64,8.76c-0.06,3.69,1.43,7.67,4.47,11.95c3.13,4.4,6.44,7.3,9.93,8.67
				C165.62,194.1,169.05,193.59,172.43,191.19z"/>
			<path class="st4" d="M222.96,167.62l-26.43,10.54l-0.64-1.6c1.42-0.57,2.42-1.11,3-1.63c0.58-0.52,0.83-1.18,0.76-1.97
				c-0.07-0.8-0.38-1.89-0.94-3.28l-3.38-8.49l-3.62,4.72l-1.66-1.38l4.35-5.7l-4.34-10.89c-0.55-1.39-1.09-2.41-1.6-3.08
				s-1.16-1-1.95-1.02c-0.79-0.02-1.9,0.26-3.32,0.83l-0.64-1.6l15.01-5.98l0.64,1.6c-1.46,0.58-2.51,1.18-3.16,1.78
				s-0.95,1.34-0.92,2.19s0.32,1.98,0.88,3.36l3.15,7.9l6.47-8.46l1.62,1.27l-7.17,9.48l5.17,12.98c0.47,1.17,1.06,1.83,1.77,1.96
				c0.71,0.13,1.85-0.12,3.42-0.74l2.51-1c1.78-0.71,3.17-1.42,4.17-2.12c1-0.71,1.69-1.51,2.07-2.4c0.39-0.9,0.6-1.96,0.64-3.2
				c0.04-1.23,0.01-2.71-0.1-4.45l1.71-0.68L222.96,167.62z"/>
			<path class="st4" d="M282.61,159.48l-1.89,0.12l-25.69-29.19l-1.61,0.1l-1.17-2.17c-0.79-0.95-1.48-1.65-2.06-2.12
				c-0.59-0.46-1.18-0.76-1.79-0.9s-1.34-0.17-2.22-0.12l-0.11-1.72l9.75-0.62l22.98,26.37l0.29-0.02l-1.18-18.59
				c-0.11-1.8-0.32-3.22-0.62-4.28c-0.3-1.05-0.84-1.81-1.64-2.26c-0.8-0.45-2.02-0.62-3.66-0.52l-0.11-1.72l13.54-0.86l0.11,1.72
				c-1.45,0.09-2.55,0.42-3.28,0.99c-0.73,0.56-1.19,1.42-1.36,2.56c-0.18,1.14-0.21,2.63-0.09,4.47L282.61,159.48z M261.87,160.33
				l-13.42,0.85l-0.11-1.72c1.53-0.1,2.67-0.33,3.41-0.71c0.74-0.37,1.22-1.07,1.42-2.08c0.2-1.01,0.25-2.47,0.13-4.38l-1.63-25.7
				l2.81-0.18l1.63,25.7c0.12,1.91,0.35,3.35,0.68,4.31c0.33,0.96,0.89,1.58,1.67,1.88c0.79,0.29,1.89,0.4,3.3,0.31L261.87,160.33z"
				/>
			<path class="st4" d="M311.42,161.9l-15.96-2.49l0.27-1.7c1.44,0.22,2.53,0.28,3.29,0.17c0.75-0.12,1.31-0.53,1.68-1.25
				c0.36-0.72,0.67-1.87,0.92-3.46l3.81-24.37c0.17-1.06,0.19-1.91,0.08-2.55c-0.11-0.64-0.51-1.15-1.19-1.52
				c-0.68-0.38-1.77-0.69-3.29-0.92l0.27-1.7l13.97,2.18c2.84,0.44,5.32,1.11,7.45,2.01c2.13,0.89,3.71,2.11,4.75,3.65
				c1.04,1.54,1.37,3.52,0.99,5.94c-0.33,2.12-1.08,3.77-2.26,4.94c-1.17,1.17-2.55,2.02-4.12,2.53c-1.57,0.51-3.17,0.83-4.78,0.97
				l-0.04,0.23c0.58,0.48,1.21,1.25,1.88,2.3c0.67,1.05,1.51,2.58,2.51,4.58c1.01,2,2.32,4.66,3.93,7.97
				c0.71,1.39,1.47,2.32,2.27,2.8c0.8,0.47,1.84,0.81,3.13,1.01l-0.27,1.7l-9.37-1.46c-1.19-2.59-2.18-4.75-2.97-6.49
				c-0.8-1.73-1.47-3.2-2.02-4.39s-1.04-2.25-1.48-3.17c-0.44-0.92-0.88-1.84-1.31-2.76c-0.43-0.96-0.87-1.57-1.31-1.84
				c-0.44-0.26-1.18-0.47-2.2-0.63l-1.59-0.25l-1.57,10.05c-0.24,1.55-0.29,2.74-0.15,3.55c0.14,0.82,0.6,1.4,1.35,1.75
				c0.76,0.35,1.95,0.65,3.58,0.91L311.42,161.9z M308.81,141.71l2.15,0.39c2.1,0.21,3.97,0.15,5.61-0.17
				c1.64-0.32,2.99-1.02,4.05-2.1c1.06-1.08,1.75-2.62,2.06-4.62c0.35-2.27-0.07-4.17-1.26-5.7c-1.2-1.53-3.33-2.53-6.4-3.01
				c-0.61-0.09-1.23-0.18-1.88-0.26s-1.28-0.13-1.9-0.15L308.81,141.71z"/>
			<path class="st4" d="M374.02,182.44l-20.51-9.6l0.83-1.77l11.62-4.21c2.56-0.96,4.76-1.89,6.58-2.79
				c1.82-0.91,3.36-1.95,4.61-3.14c1.25-1.19,2.3-2.69,3.15-4.49c0.91-1.94,1.05-3.77,0.44-5.48c-0.62-1.71-1.93-3.03-3.95-3.97
				c-1.7-0.8-3.32-1.11-4.86-0.94c-1.54,0.17-3.25,1-5.13,2.49l-1-1.11c1.98-2.16,4.17-3.53,6.55-4.1c2.38-0.58,4.84-0.27,7.38,0.92
				c1.98,0.93,3.54,2.11,4.68,3.56c1.14,1.45,1.83,3.04,2.05,4.77c0.22,1.73-0.09,3.52-0.95,5.36c-0.72,1.53-1.72,2.84-3.02,3.95
				c-1.3,1.1-2.93,2.11-4.9,3.01c-1.97,0.9-4.31,1.86-7.02,2.87l-9.92,3.29l-0.12,0.26l3.72,1.55l7.24,3.39
				c1.39,0.65,2.51,0.79,3.35,0.43c0.85-0.37,1.93-1.19,3.25-2.48l1.51,0.71L374.02,182.44z"/>
			<path class="st4" d="M392.51,195.13c-2.31-1.64-3.81-3.56-4.49-5.75s-0.68-4.5-0.03-6.92c0.66-2.42,1.8-4.77,3.41-7.06
				c1.99-2.81,4.21-5.03,6.64-6.64c2.43-1.61,4.97-2.64,7.62-3.09c2.64-0.45,5.33-0.36,8.05,0.28c2.72,0.63,5.38,1.8,7.98,3.5
				l-0.87,1.43c-2.41-1.24-4.91-1.95-7.5-2.14c-2.59-0.19-5.11,0.16-7.57,1.04c-2.46,0.89-4.7,2.33-6.73,4.32l0.29,0.28
				c1.63-0.25,3.1-0.29,4.39-0.13c1.29,0.16,2.55,0.68,3.77,1.54c2.56,1.82,3.99,4.14,4.28,6.98c0.29,2.84-0.65,5.79-2.82,8.85
				c-2.26,3.19-4.82,5.1-7.68,5.72C398.4,197.97,395.48,197.23,392.51,195.13z M393.86,193.62c1.56,1.11,3.22,1.38,4.96,0.8
				c1.74-0.57,3.67-2.34,5.77-5.32c1.51-2.13,2.29-4.25,2.36-6.36c0.06-2.11-0.87-3.86-2.81-5.23c-0.91-0.64-1.89-1.06-2.94-1.27
				c-1.05-0.21-2.12-0.08-3.19,0.38c-1.08,0.46-2.1,1.38-3.08,2.75c-1.37,1.94-2.37,3.81-3,5.62s-0.8,3.46-0.52,4.95
				C391.71,191.44,392.52,192.67,393.86,193.62z"/>
			<path class="st4" d="M428.92,229.49l-1.55-2.14l12.48-19.71c0.67-1.1,1.12-2,1.35-2.69s0.28-1.31,0.13-1.87
				c-0.14-0.56-0.46-1.18-0.96-1.86l1.35-0.98l7.26,10l-1.35,0.98c-0.68-0.93-1.24-1.5-1.7-1.71c-0.46-0.21-0.88-0.18-1.25,0.09
				c-0.31,0.23-0.57,0.49-0.77,0.8c-0.2,0.31-0.43,0.65-0.68,1.02l-7.34,11.51l-2.09,2.8l0.24,0.33l3.41-0.98l11.5-2.95l-1.96,3.76
				l-0.57-0.79L428.92,229.49z M438.2,242.28l-1.62-2.23l10.44-15.46l0.83-1.6l1.51-2.23c0.75-1.11,1.25-2.01,1.5-2.68
				c0.24-0.67,0.28-1.28,0.1-1.82c-0.18-0.54-0.51-1.15-1.01-1.83l1.35-0.98l7.06,9.72l-1.35,0.98c-0.63-0.87-1.17-1.4-1.62-1.59
				c-0.45-0.2-0.86-0.16-1.23,0.11c-0.28,0.2-0.55,0.46-0.82,0.78c-0.27,0.31-0.53,0.66-0.78,1.03l-7.45,11.16l-2.09,2.8l0.2,0.28
				l3.37-1.03l13.09-3.89c0.15-0.06,0.39-0.16,0.75-0.29c0.35-0.14,0.73-0.35,1.13-0.64c0.43-0.31,0.58-0.75,0.43-1.31
				c-0.15-0.56-0.53-1.27-1.16-2.14l1.35-0.98l5.84,8.05l-1.35,0.98c-0.65-0.9-1.36-1.43-2.11-1.59c-0.76-0.16-1.91-0.04-3.46,0.38
				L438.2,242.28z"/>
			<path class="st4" d="M462.81,296.25l-5.16-15.85l1.64-0.53c0.5,1.53,0.99,2.64,1.48,3.33c0.49,0.69,1.16,1.03,2.03,1.03
				c0.87,0,2.12-0.27,3.76-0.8l26.29-8.56l-1.14-3.5c-0.65-2-1.34-3.44-2.07-4.31c-0.73-0.87-1.69-1.35-2.89-1.45
				c-1.2-0.09-2.87-0.01-5,0.24l-0.55-1.69l10.03-2.6l9.84,30.23l-9.7,3.64l-0.55-1.7c1.87-1.05,3.27-1.97,4.18-2.75
				c0.92-0.78,1.41-1.73,1.49-2.84c0.08-1.11-0.21-2.69-0.88-4.73l-1.12-3.44l-26.29,8.56c-1.64,0.53-2.81,1.06-3.51,1.57
				c-0.7,0.51-1.04,1.19-1.03,2.03c0.01,0.84,0.27,2.05,0.78,3.61L462.81,296.25z"/>
			<path class="st4" d="M468.31,329.53c-0.4-3.77,0.04-7.1,1.32-9.99c1.27-2.89,3.29-5.22,6.05-7c2.76-1.77,6.16-2.88,10.2-3.3
				c3.89-0.41,7.37-0.04,10.44,1.12c3.07,1.16,5.56,3.02,7.47,5.57s3.06,5.72,3.46,9.49c0.4,3.81-0.04,7.15-1.34,10.03
				c-1.3,2.87-3.29,5.18-5.97,6.93c-2.69,1.75-5.92,2.82-9.69,3.22c-4,0.42-7.58,0.06-10.72-1.09c-3.15-1.15-5.7-2.99-7.66-5.52
				C469.88,336.46,468.7,333.3,468.31,329.53z M470.71,329.33c0.43,4.08,2.22,6.96,5.36,8.65c3.15,1.69,7.6,2.23,13.35,1.63
				c3.43-0.36,6.34-1.19,8.73-2.48c2.39-1.29,4.16-2.93,5.32-4.92c1.16-1.99,1.61-4.23,1.34-6.7c-0.39-3.7-2.18-6.48-5.36-8.34
				c-3.18-1.86-7.38-2.51-12.61-1.96c-5.37,0.57-9.52,2.03-12.43,4.4C471.52,321.98,470.28,325.22,470.71,329.33z"/>
			<path class="st4" d="M468.76,372.63l1.93-16.04l1.71,0.21c-0.17,1.45-0.19,2.54-0.05,3.29c0.14,0.75,0.58,1.29,1.31,1.63
				c0.73,0.34,1.9,0.6,3.49,0.8l24.48,2.95c1.06,0.13,1.91,0.12,2.55-0.01c0.63-0.14,1.13-0.55,1.48-1.24
				c0.35-0.69,0.62-1.8,0.8-3.32l1.71,0.21l-1.69,14.04c-0.34,2.85-0.92,5.36-1.74,7.52c-0.82,2.16-1.98,3.79-3.48,4.88
				s-3.47,1.49-5.91,1.2c-2.13-0.26-3.8-0.95-5.02-2.08c-1.22-1.13-2.11-2.47-2.67-4.03c-0.57-1.55-0.95-3.13-1.14-4.74l-0.23-0.03
				c-0.46,0.6-1.2,1.25-2.23,1.96c-1.03,0.71-2.53,1.6-4.49,2.67c-1.96,1.08-4.57,2.48-7.83,4.21c-1.37,0.76-2.27,1.55-2.72,2.36
				c-0.44,0.82-0.75,1.87-0.9,3.16l-1.71-0.21l1.13-9.42c2.55-1.28,4.67-2.34,6.38-3.2c1.7-0.86,3.14-1.58,4.31-2.17
				c1.17-0.59,2.21-1.12,3.12-1.59c0.91-0.47,1.81-0.94,2.72-1.41c0.94-0.46,1.54-0.92,1.79-1.38c0.25-0.45,0.43-1.19,0.56-2.22
				l0.19-1.6l-10.1-1.21c-1.56-0.19-2.75-0.2-3.56-0.02c-0.81,0.17-1.38,0.64-1.71,1.42s-0.58,1.97-0.78,3.61L468.76,372.63z
				 M488.84,369.31l-0.32,2.16c-0.14,2.11-0.01,3.97,0.37,5.6s1.13,2.95,2.24,3.98c1.11,1.02,2.68,1.65,4.69,1.9
				c2.28,0.27,4.17-0.21,5.65-1.46c1.48-1.25,2.41-3.42,2.78-6.5c0.07-0.61,0.14-1.24,0.2-1.89c0.06-0.65,0.09-1.28,0.08-1.9
				L488.84,369.31z"/>
			<path class="st4" d="M457.74,415c1.82-4.76,4.24-7.82,7.28-9.16c3.04-1.34,7.04-1.07,12.02,0.83l15.52,5.92
				c1.25,0.48,2.27,0.7,3.06,0.67c0.79-0.03,1.46-0.37,2.02-1.01c0.55-0.65,1.11-1.69,1.65-3.12l1.61,0.61l-5.9,15.47l-1.61-0.61
				c0.57-1.5,0.87-2.68,0.89-3.54c0.02-0.86-0.28-1.54-0.9-2.07c-0.62-0.53-1.61-1.05-2.97-1.56l-15.2-5.79
				c-2.33-0.89-4.4-1.33-6.23-1.33c-1.83,0-3.43,0.59-4.82,1.76c-1.39,1.17-2.57,3.03-3.54,5.57c-1.34,3.51-1.47,6.36-0.4,8.55
				s3.45,3.99,7.14,5.4l13.54,5.16c1.9,0.72,3.38,1.17,4.45,1.33c1.07,0.16,1.92-0.05,2.55-0.63c0.63-0.58,1.23-1.62,1.81-3.13
				l1.61,0.62l-5.02,13.16l-1.61-0.61c0.59-1.54,0.84-2.74,0.75-3.59c-0.08-0.85-0.57-1.56-1.44-2.12c-0.87-0.56-2.24-1.19-4.1-1.9
				l-12.95-4.94c-4.87-1.86-8.1-4.37-9.7-7.54C455.63,424.21,455.8,420.08,457.74,415z"/>
			<path class="st4" d="M427.54,467.3l1.11-1.54l38.87-1.28l0.94-1.31l2.42,0.47c1.23-0.01,2.22-0.09,2.95-0.25
				c0.73-0.16,1.34-0.43,1.83-0.81c0.49-0.38,0.99-0.93,1.51-1.64l1.4,1.01l-5.72,7.92l-34.96,0.99l-0.17,0.23l15.1,10.9
				c1.46,1.05,2.69,1.8,3.7,2.25c1,0.44,1.93,0.5,2.79,0.17c0.85-0.33,1.76-1.16,2.73-2.5l1.4,1.01l-7.94,11l-1.4-1.01
				c0.85-1.18,1.29-2.23,1.32-3.16c0.03-0.93-0.34-1.82-1.11-2.68c-0.77-0.86-1.9-1.83-3.39-2.91L427.54,467.3z M440.07,450.74
				l7.88-10.9l1.4,1.01c-0.9,1.24-1.44,2.27-1.62,3.08c-0.18,0.81,0.05,1.62,0.7,2.42c0.65,0.8,1.75,1.76,3.31,2.88l20.88,15.08
				l-1.65,2.28l-20.88-15.08c-1.55-1.12-2.8-1.86-3.75-2.21c-0.95-0.36-1.79-0.32-2.52,0.1c-0.73,0.42-1.51,1.2-2.34,2.35
				L440.07,450.74z"/>
			<path class="st4" d="M407.12,488.08l12.01-11.39l1.19,1.25c-1.25,1.19-2.07,2.16-2.46,2.92c-0.39,0.76-0.38,1.52,0.02,2.28
				c0.4,0.76,1.17,1.73,2.3,2.93l15.59,16.43c1.03,1.08,1.91,1.87,2.64,2.37c0.73,0.49,1.5,0.59,2.31,0.3
				c0.81-0.29,1.88-1.07,3.21-2.33l1.19,1.25l-12.01,11.39l-1.19-1.25c1.31-1.24,2.13-2.26,2.48-3.07c0.35-0.8,0.29-1.58-0.18-2.32
				c-0.47-0.75-1.22-1.66-2.25-2.74l-15.59-16.43c-1.13-1.2-2.07-2.01-2.8-2.45c-0.73-0.44-1.49-0.49-2.27-0.14
				c-0.78,0.35-1.78,1.1-3.01,2.26L407.12,488.08z"/>
			<path class="st4" d="M384.83,503.89c4.27-2.79,8.02-3.84,11.27-3.15c3.25,0.69,6.33,3.27,9.25,7.72l9.1,13.9
				c0.73,1.12,1.43,1.9,2.08,2.34c0.66,0.44,1.4,0.56,2.23,0.36c0.83-0.2,1.89-0.72,3.17-1.56l0.95,1.44l-13.85,9.07l-0.94-1.44
				c1.35-0.88,2.28-1.66,2.79-2.35c0.52-0.68,0.68-1.42,0.48-2.2c-0.2-0.79-0.69-1.79-1.49-3.01l-8.91-13.61
				c-1.36-2.08-2.79-3.66-4.26-4.73c-1.48-1.07-3.12-1.54-4.94-1.41s-3.86,0.95-6.13,2.44c-3.14,2.06-4.92,4.29-5.34,6.69
				c-0.42,2.4,0.45,5.26,2.61,8.56l7.93,12.12c1.11,1.7,2.05,2.93,2.82,3.68c0.77,0.76,1.58,1.08,2.43,0.99
				c0.85-0.1,1.95-0.59,3.3-1.47l0.94,1.44l-11.78,7.71l-0.94-1.44c1.38-0.9,2.28-1.72,2.71-2.46s0.46-1.59,0.08-2.56
				c-0.38-0.96-1.12-2.28-2.21-3.95l-7.59-11.59c-2.85-4.36-4-8.3-3.43-11.8C377.72,510.12,380.28,506.87,384.83,503.89z"/>
		</g>
	</g>
</g>
</svg>
